<svg width="24" height="64" viewBox="0 0 24 64" fill="none" xmlns="http://www.w3.org/2000/svg">
<path d="M2 30.0047C7.34586 30.0047 9.60278 27.0685 9.60278 24.4328C9.60278 22.327 9.7506 13.9694 9.7506 11.8602C9.7506 4.93623 14.2688 2 20.6684 2H22.2503V6.14104H20.895C16.4507 6.14104 14.7182 8.32134 14.7182 12.3858C14.7182 14.1177 14.6476 21.6471 14.6476 23.6818C14.7242 28.5 11.1081 30.909 7.7192 31.8101V31.9633C11.1081 32.7904 14.7242 35.3501 14.6476 40.1682C14.6476 42.2002 14.7182 49.2758 14.7182 51.0811C14.7182 55.2983 16.6779 57.8595 20.895 57.8595H22.2503V62H20.6684C14.4193 62 9.7506 59.2904 9.7506 51.686C9.7506 49.654 9.60278 41.4459 9.60278 39.4145C9.60278 37.0815 7.34586 33.8453 2 33.8453V30.0047V30.0047Z" fill="#EF476F" stroke="#EF476F" stroke-width="3" stroke-miterlimit="10"/>
</svg>
