<svg width="100%" height="100%" viewBox="0 0 142 78" fill="none" xmlns="http://www.w3.org/2000/svg">
<path d="M90.377 38.8671C90.377 28.0941 81.646 19.3551 70.867 19.3551C60.088 19.3551 51.355 28.0911 51.355 38.8671C51.355 49.6411 60.087 58.3781 70.867 58.3781C81.643 58.3781 90.377 49.6421 90.377 38.8671ZM129.061 38.8081C115.746 56.4071 94.635 67.7801 70.868 67.7801C47.098 67.7801 25.989 56.4071 12.674 38.8081C25.988 21.2101 47.098 9.83705 70.867 9.83705C94.636 9.83705 115.745 21.2101 129.061 38.8081ZM141.023 38.8411C126.375 15.5591 100.434 0.0810547 70.867 0.0810547C41.3 0.0810547 15.357 15.5591 0.708984 38.8411C15.357 62.1531 41.3 77.6511 70.867 77.6511C100.434 77.6511 126.375 62.1531 141.023 38.8411Z" fill="white"/>
</svg>
